<mxfile host="drawio-plugin" modified="2023-12-03T08:35:26.355Z" agent="5.0 (Macintosh; Intel Mac OS X 10_15_7) AppleWebKit/537.36 (KHTML, like Gecko) Chrome/104.0.5112.102 Safari/537.36" etag="Gvpr8ls4LNSHiOmki1fG" version="20.5.3" type="embed"><diagram id="R2lEEEUBdFMjLlhIrx00" name="Page-1"><mxGraphModel dx="674" dy="728" grid="0" gridSize="10" guides="1" tooltips="1" connect="1" arrows="1" fold="1" page="0" pageScale="1" pageWidth="850" pageHeight="1100" math="0" shadow="0" extFonts="Permanent Marker^https://fonts.googleapis.com/css?family=Permanent+Marker"><root><mxCell id="0"/><mxCell id="1" parent="0"/><mxCell id="sTb-_6rUiiWD2SJvI9vQ-11" value="user" style="shape=table;startSize=30;container=1;collapsible=1;childLayout=tableLayout;fixedRows=1;rowLines=0;fontStyle=1;align=center;resizeLast=1;html=1;" parent="1" vertex="1"><mxGeometry x="70" y="320" width="240" height="150" as="geometry"/></mxCell><mxCell id="sTb-_6rUiiWD2SJvI9vQ-12" value="" style="shape=tableRow;horizontal=0;startSize=0;swimlaneHead=0;swimlaneBody=0;fillColor=none;collapsible=0;dropTarget=0;points=[[0,0.5],[1,0.5]];portConstraint=eastwest;top=0;left=0;right=0;bottom=1;" parent="sTb-_6rUiiWD2SJvI9vQ-11" vertex="1"><mxGeometry y="30" width="240" height="30" as="geometry"/></mxCell><mxCell id="sTb-_6rUiiWD2SJvI9vQ-13" value="PK" style="shape=partialRectangle;connectable=0;fillColor=none;top=0;left=0;bottom=0;right=0;fontStyle=1;overflow=hidden;whiteSpace=wrap;html=1;" parent="sTb-_6rUiiWD2SJvI9vQ-12" vertex="1"><mxGeometry width="30" height="30" as="geometry"><mxRectangle width="30" height="30" as="alternateBounds"/></mxGeometry></mxCell><mxCell id="sTb-_6rUiiWD2SJvI9vQ-14" value="id serial" style="shape=partialRectangle;connectable=0;fillColor=none;top=0;left=0;bottom=0;right=0;align=left;spacingLeft=6;fontStyle=5;overflow=hidden;whiteSpace=wrap;html=1;" parent="sTb-_6rUiiWD2SJvI9vQ-12" vertex="1"><mxGeometry x="30" width="210" height="30" as="geometry"><mxRectangle width="210" height="30" as="alternateBounds"/></mxGeometry></mxCell><mxCell id="sTb-_6rUiiWD2SJvI9vQ-15" value="" style="shape=tableRow;horizontal=0;startSize=0;swimlaneHead=0;swimlaneBody=0;fillColor=none;collapsible=0;dropTarget=0;points=[[0,0.5],[1,0.5]];portConstraint=eastwest;top=0;left=0;right=0;bottom=0;" parent="sTb-_6rUiiWD2SJvI9vQ-11" vertex="1"><mxGeometry y="60" width="240" height="30" as="geometry"/></mxCell><mxCell id="sTb-_6rUiiWD2SJvI9vQ-16" value="" style="shape=partialRectangle;connectable=0;fillColor=none;top=0;left=0;bottom=0;right=0;editable=1;overflow=hidden;whiteSpace=wrap;html=1;" parent="sTb-_6rUiiWD2SJvI9vQ-15" vertex="1"><mxGeometry width="30" height="30" as="geometry"><mxRectangle width="30" height="30" as="alternateBounds"/></mxGeometry></mxCell><mxCell id="sTb-_6rUiiWD2SJvI9vQ-17" value="login varchar(255) not null unique" style="shape=partialRectangle;connectable=0;fillColor=none;top=0;left=0;bottom=0;right=0;align=left;spacingLeft=6;overflow=hidden;whiteSpace=wrap;html=1;" parent="sTb-_6rUiiWD2SJvI9vQ-15" vertex="1"><mxGeometry x="30" width="210" height="30" as="geometry"><mxRectangle width="210" height="30" as="alternateBounds"/></mxGeometry></mxCell><mxCell id="sTb-_6rUiiWD2SJvI9vQ-18" value="" style="shape=tableRow;horizontal=0;startSize=0;swimlaneHead=0;swimlaneBody=0;fillColor=none;collapsible=0;dropTarget=0;points=[[0,0.5],[1,0.5]];portConstraint=eastwest;top=0;left=0;right=0;bottom=0;" parent="sTb-_6rUiiWD2SJvI9vQ-11" vertex="1"><mxGeometry y="90" width="240" height="30" as="geometry"/></mxCell><mxCell id="sTb-_6rUiiWD2SJvI9vQ-19" value="" style="shape=partialRectangle;connectable=0;fillColor=none;top=0;left=0;bottom=0;right=0;editable=1;overflow=hidden;whiteSpace=wrap;html=1;" parent="sTb-_6rUiiWD2SJvI9vQ-18" vertex="1"><mxGeometry width="30" height="30" as="geometry"><mxRectangle width="30" height="30" as="alternateBounds"/></mxGeometry></mxCell><mxCell id="sTb-_6rUiiWD2SJvI9vQ-20" value="password varchar(255) not null" style="shape=partialRectangle;connectable=0;fillColor=none;top=0;left=0;bottom=0;right=0;align=left;spacingLeft=6;overflow=hidden;whiteSpace=wrap;html=1;" parent="sTb-_6rUiiWD2SJvI9vQ-18" vertex="1"><mxGeometry x="30" width="210" height="30" as="geometry"><mxRectangle width="210" height="30" as="alternateBounds"/></mxGeometry></mxCell><mxCell id="sTb-_6rUiiWD2SJvI9vQ-21" value="" style="shape=tableRow;horizontal=0;startSize=0;swimlaneHead=0;swimlaneBody=0;fillColor=none;collapsible=0;dropTarget=0;points=[[0,0.5],[1,0.5]];portConstraint=eastwest;top=0;left=0;right=0;bottom=0;" parent="sTb-_6rUiiWD2SJvI9vQ-11" vertex="1"><mxGeometry y="120" width="240" height="30" as="geometry"/></mxCell><mxCell id="sTb-_6rUiiWD2SJvI9vQ-22" value="" style="shape=partialRectangle;connectable=0;fillColor=none;top=0;left=0;bottom=0;right=0;editable=1;overflow=hidden;whiteSpace=wrap;html=1;" parent="sTb-_6rUiiWD2SJvI9vQ-21" vertex="1"><mxGeometry width="30" height="30" as="geometry"><mxRectangle width="30" height="30" as="alternateBounds"/></mxGeometry></mxCell><mxCell id="sTb-_6rUiiWD2SJvI9vQ-23" value="balance real not null&amp;nbsp; default 0.0" style="shape=partialRectangle;connectable=0;fillColor=none;top=0;left=0;bottom=0;right=0;align=left;spacingLeft=6;overflow=hidden;whiteSpace=wrap;html=1;" parent="sTb-_6rUiiWD2SJvI9vQ-21" vertex="1"><mxGeometry x="30" width="210" height="30" as="geometry"><mxRectangle width="210" height="30" as="alternateBounds"/></mxGeometry></mxCell><mxCell id="sTb-_6rUiiWD2SJvI9vQ-24" value="enrollment_order" style="shape=table;startSize=30;container=1;collapsible=1;childLayout=tableLayout;fixedRows=1;rowLines=0;fontStyle=1;align=center;resizeLast=1;html=1;" parent="1" vertex="1"><mxGeometry x="425" y="400" width="270" height="210" as="geometry"><mxRectangle x="370" y="170" width="140" height="30" as="alternateBounds"/></mxGeometry></mxCell><mxCell id="sTb-_6rUiiWD2SJvI9vQ-25" value="" style="shape=tableRow;horizontal=0;startSize=0;swimlaneHead=0;swimlaneBody=0;fillColor=none;collapsible=0;dropTarget=0;points=[[0,0.5],[1,0.5]];portConstraint=eastwest;top=0;left=0;right=0;bottom=1;" parent="sTb-_6rUiiWD2SJvI9vQ-24" vertex="1"><mxGeometry y="30" width="270" height="30" as="geometry"/></mxCell><mxCell id="sTb-_6rUiiWD2SJvI9vQ-26" value="PK" style="shape=partialRectangle;connectable=0;fillColor=none;top=0;left=0;bottom=0;right=0;fontStyle=1;overflow=hidden;whiteSpace=wrap;html=1;" parent="sTb-_6rUiiWD2SJvI9vQ-25" vertex="1"><mxGeometry width="30" height="30" as="geometry"><mxRectangle width="30" height="30" as="alternateBounds"/></mxGeometry></mxCell><mxCell id="sTb-_6rUiiWD2SJvI9vQ-27" value="order_id char(16) not null" style="shape=partialRectangle;connectable=0;fillColor=none;top=0;left=0;bottom=0;right=0;align=left;spacingLeft=6;fontStyle=5;overflow=hidden;whiteSpace=wrap;html=1;" parent="sTb-_6rUiiWD2SJvI9vQ-25" vertex="1"><mxGeometry x="30" width="240" height="30" as="geometry"><mxRectangle width="240" height="30" as="alternateBounds"/></mxGeometry></mxCell><mxCell id="sTb-_6rUiiWD2SJvI9vQ-28" value="" style="shape=tableRow;horizontal=0;startSize=0;swimlaneHead=0;swimlaneBody=0;fillColor=none;collapsible=0;dropTarget=0;points=[[0,0.5],[1,0.5]];portConstraint=eastwest;top=0;left=0;right=0;bottom=0;" parent="sTb-_6rUiiWD2SJvI9vQ-24" vertex="1"><mxGeometry y="60" width="270" height="30" as="geometry"/></mxCell><mxCell id="sTb-_6rUiiWD2SJvI9vQ-29" value="" style="shape=partialRectangle;connectable=0;fillColor=none;top=0;left=0;bottom=0;right=0;editable=1;overflow=hidden;whiteSpace=wrap;html=1;" parent="sTb-_6rUiiWD2SJvI9vQ-28" vertex="1"><mxGeometry width="30" height="30" as="geometry"><mxRectangle width="30" height="30" as="alternateBounds"/></mxGeometry></mxCell><mxCell id="sTb-_6rUiiWD2SJvI9vQ-30" value="user_id int not null" style="shape=partialRectangle;connectable=0;fillColor=none;top=0;left=0;bottom=0;right=0;align=left;spacingLeft=6;overflow=hidden;whiteSpace=wrap;html=1;" parent="sTb-_6rUiiWD2SJvI9vQ-28" vertex="1"><mxGeometry x="30" width="240" height="30" as="geometry"><mxRectangle width="240" height="30" as="alternateBounds"/></mxGeometry></mxCell><mxCell id="sTb-_6rUiiWD2SJvI9vQ-31" value="" style="shape=tableRow;horizontal=0;startSize=0;swimlaneHead=0;swimlaneBody=0;fillColor=none;collapsible=0;dropTarget=0;points=[[0,0.5],[1,0.5]];portConstraint=eastwest;top=0;left=0;right=0;bottom=0;" parent="sTb-_6rUiiWD2SJvI9vQ-24" vertex="1"><mxGeometry y="90" width="270" height="30" as="geometry"/></mxCell><mxCell id="sTb-_6rUiiWD2SJvI9vQ-32" value="" style="shape=partialRectangle;connectable=0;fillColor=none;top=0;left=0;bottom=0;right=0;editable=1;overflow=hidden;whiteSpace=wrap;html=1;" parent="sTb-_6rUiiWD2SJvI9vQ-31" vertex="1"><mxGeometry width="30" height="30" as="geometry"><mxRectangle width="30" height="30" as="alternateBounds"/></mxGeometry></mxCell><mxCell id="sTb-_6rUiiWD2SJvI9vQ-33" value="status varchar(30) not null" style="shape=partialRectangle;connectable=0;fillColor=none;top=0;left=0;bottom=0;right=0;align=left;spacingLeft=6;overflow=hidden;whiteSpace=wrap;html=1;" parent="sTb-_6rUiiWD2SJvI9vQ-31" vertex="1"><mxGeometry x="30" width="240" height="30" as="geometry"><mxRectangle width="240" height="30" as="alternateBounds"/></mxGeometry></mxCell><mxCell id="sTb-_6rUiiWD2SJvI9vQ-34" value="" style="shape=tableRow;horizontal=0;startSize=0;swimlaneHead=0;swimlaneBody=0;fillColor=none;collapsible=0;dropTarget=0;points=[[0,0.5],[1,0.5]];portConstraint=eastwest;top=0;left=0;right=0;bottom=0;" parent="sTb-_6rUiiWD2SJvI9vQ-24" vertex="1"><mxGeometry y="120" width="270" height="30" as="geometry"/></mxCell><mxCell id="sTb-_6rUiiWD2SJvI9vQ-35" value="" style="shape=partialRectangle;connectable=0;fillColor=none;top=0;left=0;bottom=0;right=0;editable=1;overflow=hidden;whiteSpace=wrap;html=1;" parent="sTb-_6rUiiWD2SJvI9vQ-34" vertex="1"><mxGeometry width="30" height="30" as="geometry"><mxRectangle width="30" height="30" as="alternateBounds"/></mxGeometry></mxCell><mxCell id="sTb-_6rUiiWD2SJvI9vQ-36" value="accrual real null" style="shape=partialRectangle;connectable=0;fillColor=none;top=0;left=0;bottom=0;right=0;align=left;spacingLeft=6;overflow=hidden;whiteSpace=wrap;html=1;" parent="sTb-_6rUiiWD2SJvI9vQ-34" vertex="1"><mxGeometry x="30" width="240" height="30" as="geometry"><mxRectangle width="240" height="30" as="alternateBounds"/></mxGeometry></mxCell><mxCell id="sTb-_6rUiiWD2SJvI9vQ-71" style="shape=tableRow;horizontal=0;startSize=0;swimlaneHead=0;swimlaneBody=0;fillColor=none;collapsible=0;dropTarget=0;points=[[0,0.5],[1,0.5]];portConstraint=eastwest;top=0;left=0;right=0;bottom=0;" parent="sTb-_6rUiiWD2SJvI9vQ-24" vertex="1"><mxGeometry y="150" width="270" height="30" as="geometry"/></mxCell><mxCell id="sTb-_6rUiiWD2SJvI9vQ-72" style="shape=partialRectangle;connectable=0;fillColor=none;top=0;left=0;bottom=0;right=0;editable=1;overflow=hidden;whiteSpace=wrap;html=1;" parent="sTb-_6rUiiWD2SJvI9vQ-71" vertex="1"><mxGeometry width="30" height="30" as="geometry"><mxRectangle width="30" height="30" as="alternateBounds"/></mxGeometry></mxCell><mxCell id="sTb-_6rUiiWD2SJvI9vQ-73" value="is_accrual_transferred bool not null default false" style="shape=partialRectangle;connectable=0;fillColor=none;top=0;left=0;bottom=0;right=0;align=left;spacingLeft=6;overflow=hidden;whiteSpace=wrap;html=1;" parent="sTb-_6rUiiWD2SJvI9vQ-71" vertex="1"><mxGeometry x="30" width="240" height="30" as="geometry"><mxRectangle width="240" height="30" as="alternateBounds"/></mxGeometry></mxCell><mxCell id="sTb-_6rUiiWD2SJvI9vQ-74" style="shape=tableRow;horizontal=0;startSize=0;swimlaneHead=0;swimlaneBody=0;fillColor=none;collapsible=0;dropTarget=0;points=[[0,0.5],[1,0.5]];portConstraint=eastwest;top=0;left=0;right=0;bottom=0;" parent="sTb-_6rUiiWD2SJvI9vQ-24" vertex="1"><mxGeometry y="180" width="270" height="30" as="geometry"/></mxCell><mxCell id="sTb-_6rUiiWD2SJvI9vQ-75" style="shape=partialRectangle;connectable=0;fillColor=none;top=0;left=0;bottom=0;right=0;editable=1;overflow=hidden;whiteSpace=wrap;html=1;" parent="sTb-_6rUiiWD2SJvI9vQ-74" vertex="1"><mxGeometry width="30" height="30" as="geometry"><mxRectangle width="30" height="30" as="alternateBounds"/></mxGeometry></mxCell><mxCell id="sTb-_6rUiiWD2SJvI9vQ-76" value="uploaded_at timestamp not null" style="shape=partialRectangle;connectable=0;fillColor=none;top=0;left=0;bottom=0;right=0;align=left;spacingLeft=6;overflow=hidden;whiteSpace=wrap;html=1;" parent="sTb-_6rUiiWD2SJvI9vQ-74" vertex="1"><mxGeometry x="30" width="240" height="30" as="geometry"><mxRectangle width="240" height="30" as="alternateBounds"/></mxGeometry></mxCell><mxCell id="sTb-_6rUiiWD2SJvI9vQ-39" value="withdrawn_order" style="shape=table;startSize=53;container=1;collapsible=1;childLayout=tableLayout;fixedRows=1;rowLines=0;fontStyle=1;align=center;resizeLast=1;html=1;" parent="1" vertex="1"><mxGeometry x="429" y="162" width="230" height="207" as="geometry"/></mxCell><mxCell id="sTb-_6rUiiWD2SJvI9vQ-40" value="" style="shape=tableRow;horizontal=0;startSize=0;swimlaneHead=0;swimlaneBody=0;fillColor=none;collapsible=0;dropTarget=0;points=[[0,0.5],[1,0.5]];portConstraint=eastwest;top=0;left=0;right=0;bottom=1;" parent="sTb-_6rUiiWD2SJvI9vQ-39" vertex="1"><mxGeometry y="53" width="230" height="30" as="geometry"/></mxCell><mxCell id="sTb-_6rUiiWD2SJvI9vQ-41" value="PK" style="shape=partialRectangle;connectable=0;fillColor=none;top=0;left=0;bottom=0;right=0;fontStyle=1;overflow=hidden;whiteSpace=wrap;html=1;" parent="sTb-_6rUiiWD2SJvI9vQ-40" vertex="1"><mxGeometry width="30" height="30" as="geometry"><mxRectangle width="30" height="30" as="alternateBounds"/></mxGeometry></mxCell><mxCell id="sTb-_6rUiiWD2SJvI9vQ-42" value="id serial not null" style="shape=partialRectangle;connectable=0;fillColor=none;top=0;left=0;bottom=0;right=0;align=left;spacingLeft=6;fontStyle=5;overflow=hidden;whiteSpace=wrap;html=1;" parent="sTb-_6rUiiWD2SJvI9vQ-40" vertex="1"><mxGeometry x="30" width="200" height="30" as="geometry"><mxRectangle width="200" height="30" as="alternateBounds"/></mxGeometry></mxCell><mxCell id="sTb-_6rUiiWD2SJvI9vQ-43" value="" style="shape=tableRow;horizontal=0;startSize=0;swimlaneHead=0;swimlaneBody=0;fillColor=none;collapsible=0;dropTarget=0;points=[[0,0.5],[1,0.5]];portConstraint=eastwest;top=0;left=0;right=0;bottom=0;" parent="sTb-_6rUiiWD2SJvI9vQ-39" vertex="1"><mxGeometry y="83" width="230" height="30" as="geometry"/></mxCell><mxCell id="sTb-_6rUiiWD2SJvI9vQ-44" value="" style="shape=partialRectangle;connectable=0;fillColor=none;top=0;left=0;bottom=0;right=0;editable=1;overflow=hidden;whiteSpace=wrap;html=1;" parent="sTb-_6rUiiWD2SJvI9vQ-43" vertex="1"><mxGeometry width="30" height="30" as="geometry"><mxRectangle width="30" height="30" as="alternateBounds"/></mxGeometry></mxCell><mxCell id="sTb-_6rUiiWD2SJvI9vQ-45" value="user_id int not null" style="shape=partialRectangle;connectable=0;fillColor=none;top=0;left=0;bottom=0;right=0;align=left;spacingLeft=6;overflow=hidden;whiteSpace=wrap;html=1;" parent="sTb-_6rUiiWD2SJvI9vQ-43" vertex="1"><mxGeometry x="30" width="200" height="30" as="geometry"><mxRectangle width="200" height="30" as="alternateBounds"/></mxGeometry></mxCell><mxCell id="sTb-_6rUiiWD2SJvI9vQ-46" value="" style="shape=tableRow;horizontal=0;startSize=0;swimlaneHead=0;swimlaneBody=0;fillColor=none;collapsible=0;dropTarget=0;points=[[0,0.5],[1,0.5]];portConstraint=eastwest;top=0;left=0;right=0;bottom=0;" parent="sTb-_6rUiiWD2SJvI9vQ-39" vertex="1"><mxGeometry y="113" width="230" height="30" as="geometry"/></mxCell><mxCell id="sTb-_6rUiiWD2SJvI9vQ-47" value="" style="shape=partialRectangle;connectable=0;fillColor=none;top=0;left=0;bottom=0;right=0;editable=1;overflow=hidden;whiteSpace=wrap;html=1;" parent="sTb-_6rUiiWD2SJvI9vQ-46" vertex="1"><mxGeometry width="30" height="30" as="geometry"><mxRectangle width="30" height="30" as="alternateBounds"/></mxGeometry></mxCell><mxCell id="sTb-_6rUiiWD2SJvI9vQ-48" value="sum real not null" style="shape=partialRectangle;connectable=0;fillColor=none;top=0;left=0;bottom=0;right=0;align=left;spacingLeft=6;overflow=hidden;whiteSpace=wrap;html=1;" parent="sTb-_6rUiiWD2SJvI9vQ-46" vertex="1"><mxGeometry x="30" width="200" height="30" as="geometry"><mxRectangle width="200" height="30" as="alternateBounds"/></mxGeometry></mxCell><mxCell id="sTb-_6rUiiWD2SJvI9vQ-49" value="" style="shape=tableRow;horizontal=0;startSize=0;swimlaneHead=0;swimlaneBody=0;fillColor=none;collapsible=0;dropTarget=0;points=[[0,0.5],[1,0.5]];portConstraint=eastwest;top=0;left=0;right=0;bottom=0;" parent="sTb-_6rUiiWD2SJvI9vQ-39" vertex="1"><mxGeometry y="143" width="230" height="31" as="geometry"/></mxCell><mxCell id="sTb-_6rUiiWD2SJvI9vQ-50" value="" style="shape=partialRectangle;connectable=0;fillColor=none;top=0;left=0;bottom=0;right=0;editable=1;overflow=hidden;whiteSpace=wrap;html=1;" parent="sTb-_6rUiiWD2SJvI9vQ-49" vertex="1"><mxGeometry width="30" height="31" as="geometry"><mxRectangle width="30" height="31" as="alternateBounds"/></mxGeometry></mxCell><mxCell id="sTb-_6rUiiWD2SJvI9vQ-51" value="&lt;meta charset=&quot;utf-8&quot;&gt;&lt;span style=&quot;color: rgb(240, 240, 240); font-family: Helvetica; font-size: 12px; font-style: normal; font-variant-ligatures: normal; font-variant-caps: normal; font-weight: 400; letter-spacing: normal; orphans: 2; text-align: left; text-indent: 0px; text-transform: none; widows: 2; word-spacing: 0px; -webkit-text-stroke-width: 0px; background-color: rgb(42, 42, 42); text-decoration-thickness: initial; text-decoration-style: initial; text-decoration-color: initial; float: none; display: inline !important;&quot;&gt;processed_at timestamp not null&lt;/span&gt;" style="shape=partialRectangle;connectable=0;fillColor=none;top=0;left=0;bottom=0;right=0;align=left;spacingLeft=6;overflow=hidden;whiteSpace=wrap;html=1;" parent="sTb-_6rUiiWD2SJvI9vQ-49" vertex="1"><mxGeometry x="30" width="200" height="31" as="geometry"><mxRectangle width="200" height="31" as="alternateBounds"/></mxGeometry></mxCell><mxCell id="sTb-_6rUiiWD2SJvI9vQ-77" value="" style="edgeStyle=entityRelationEdgeStyle;fontSize=12;html=1;endArrow=ERoneToMany;rounded=0;entryX=0;entryY=0.5;entryDx=0;entryDy=0;" parent="1" source="sTb-_6rUiiWD2SJvI9vQ-12" target="sTb-_6rUiiWD2SJvI9vQ-43" edge="1"><mxGeometry width="100" height="100" relative="1" as="geometry"><mxPoint x="320" y="510" as="sourcePoint"/><mxPoint x="420" y="410" as="targetPoint"/></mxGeometry></mxCell><mxCell id="sTb-_6rUiiWD2SJvI9vQ-78" value="" style="edgeStyle=entityRelationEdgeStyle;fontSize=12;html=1;endArrow=ERoneToMany;rounded=0;exitX=1;exitY=0.5;exitDx=0;exitDy=0;" parent="1" source="sTb-_6rUiiWD2SJvI9vQ-12" target="sTb-_6rUiiWD2SJvI9vQ-28" edge="1"><mxGeometry width="100" height="100" relative="1" as="geometry"><mxPoint x="320" y="510" as="sourcePoint"/><mxPoint x="420" y="410" as="targetPoint"/></mxGeometry></mxCell><mxCell id="2" value="Сущность enrollment (пакет order). Те заказы, за которые начисляют баллы" style="text;html=1;strokeColor=none;fillColor=none;align=center;verticalAlign=middle;whiteSpace=wrap;rounded=0;" parent="1" vertex="1"><mxGeometry x="726" y="470" width="202" height="30" as="geometry"/></mxCell><mxCell id="4" value="Сущность withdrawn (пакет order). Те заказы, на которые тратят баллы" style="text;html=1;strokeColor=none;fillColor=none;align=center;verticalAlign=middle;whiteSpace=wrap;rounded=0;" parent="1" vertex="1"><mxGeometry x="681" y="255" width="202" height="30" as="geometry"/></mxCell><mxCell id="5" value="" style="shape=tableRow;horizontal=0;startSize=0;swimlaneHead=0;swimlaneBody=0;fillColor=none;collapsible=0;dropTarget=0;points=[[0,0.5],[1,0.5]];portConstraint=eastwest;top=0;left=0;right=0;bottom=0;" vertex="1" parent="1"><mxGeometry x="429" y="338.25" width="230" height="35" as="geometry"/></mxCell><mxCell id="6" value="" style="shape=partialRectangle;connectable=0;fillColor=none;top=0;left=0;bottom=0;right=0;editable=1;overflow=hidden;whiteSpace=wrap;html=1;" vertex="1" parent="5"><mxGeometry width="30" height="35" as="geometry"><mxRectangle width="30" height="35" as="alternateBounds"/></mxGeometry></mxCell><mxCell id="7" value="&lt;span style=&quot;color: rgba(0, 0, 0, 0); font-family: monospace; font-size: 0px;&quot;&gt;derafasf&lt;/span&gt;" style="shape=partialRectangle;connectable=0;fillColor=none;top=0;left=0;bottom=0;right=0;align=left;spacingLeft=6;overflow=hidden;whiteSpace=wrap;html=1;" vertex="1" parent="5"><mxGeometry x="30" width="200" height="35" as="geometry"><mxRectangle width="200" height="35" as="alternateBounds"/></mxGeometry></mxCell><mxCell id="8" value="&lt;span style=&quot;color: rgb(240, 240, 240); font-family: Helvetica; font-size: 12px; font-style: normal; font-variant-ligatures: normal; font-variant-caps: normal; font-weight: 400; letter-spacing: normal; orphans: 2; text-align: left; text-indent: 0px; text-transform: none; widows: 2; word-spacing: 0px; -webkit-text-stroke-width: 0px; background-color: rgb(42, 42, 42); text-decoration-thickness: initial; text-decoration-style: initial; text-decoration-color: initial; float: none; display: inline !important;&quot;&gt;order_id varchar(100) not null&lt;br&gt;&lt;/span&gt;" style="shape=partialRectangle;connectable=0;fillColor=none;top=0;left=0;bottom=0;right=0;align=left;spacingLeft=6;overflow=hidden;whiteSpace=wrap;html=1;" vertex="1" parent="1"><mxGeometry x="460" y="333" width="200" height="31" as="geometry"><mxRectangle width="200" height="31" as="alternateBounds"/></mxGeometry></mxCell></root></mxGraphModel></diagram></mxfile>